STARTFONT 2.1
COMMENT Created by fdbbdf
FONT times22b
SIZE 22 78 78
FONTBOUNDINGBOX 25 24 -1 -6
STARTPROPERTIES 4
Ownership "  Copyright (c) 1984 Adobe Systems, Inc.  /adobe/fonttools/bitmaps/stdfontvec.ps TB24.bits  TOTAL BITMAP BYTES 3820  GUIDELINES -5 0 12 17 DONE  WIDTHERR -44 -70  "
FONT_ASCENT 18
FONT_DESCENT 6
DEFAULT_CHAR 32
ENDPROPERTIES
CHARS 95
STARTCHAR sp
ENCODING -1 32
SWIDTH 0 0
DWIDTH 6 0
BBX 0 0 0 0
BITMAP
ENDCHAR
STARTCHAR !
ENCODING -1 33
SWIDTH 0 0
DWIDTH 8 0
BBX 4 17 2 -1
BITMAP
6000
f000
f000
f000
f000
f000
6000
6000
6000
6000
6000
0000
0000
6000
f000
f000
6000
ENDCHAR
STARTCHAR "
ENCODING -1 34
SWIDTH 0 0
DWIDTH 12 0
BBX 8 8 2 8
BITMAP
e700
e700
e700
e700
e700
e700
4200
4200
ENDCHAR
STARTCHAR #
ENCODING -1 35
SWIDTH 0 0
DWIDTH 13 0
BBX 12 17 0 -1
BITMAP
0cc0
0cc0
0cc0
0cc0
7ff0
7ff0
1980
1980
1980
1980
ffe0
ffe0
3300
3300
3300
3300
3300
ENDCHAR
STARTCHAR $
ENCODING -1 36
SWIDTH 0 0
DWIDTH 12 0
BBX 10 21 1 -3
BITMAP
0800
0800
3e00
6b80
4980
c980
e880
f800
7c00
7e00
3f00
1f80
0f80
0bc0
89c0
c9c0
c980
eb80
3e00
0800
0800
ENDCHAR
STARTCHAR %
ENCODING -1 37
SWIDTH 0 0
DWIDTH 19 0
BBX 17 17 1 -1
BITMAP
1e0c0000
3bfc0000
71180000
e1300000
e2300000
e2600000
f4600000
78c00000
00c00000
018f0000
019d8000
03388000
03708000
06710000
06710000
0c7a0000
0c3c0000
ENDCHAR
STARTCHAR &
ENCODING -1 38
SWIDTH 0 0
DWIDTH 21 0
BBX 17 17 1 -1
BITMAP
03e00000
06700000
0e300000
0e300000
0e700000
0fe00000
0f8f8000
1f870000
33c20000
61e60000
e1fc0000
e0f80000
f0780000
f87c0000
ffff8000
7f9f0000
3f0e0000
ENDCHAR
STARTCHAR '
ENCODING -1 39
SWIDTH 0 0
DWIDTH 8 0
BBX 4 9 2 7
BITMAP
6000
f000
f000
7000
3000
6000
6000
c000
8000
ENDCHAR
STARTCHAR (
ENCODING -1 40
SWIDTH 0 0
DWIDTH 8 0
BBX 5 21 1 -5
BITMAP
0800
1800
3000
3000
7000
6000
6000
e000
e000
e000
e000
e000
e000
e000
6000
6000
7000
3000
3000
1800
0800
ENDCHAR
STARTCHAR )
ENCODING -1 41
SWIDTH 0 0
DWIDTH 8 0
BBX 5 21 2 -5
BITMAP
8000
c000
6000
6000
3000
3000
3000
3800
3800
3800
3800
3800
3800
3800
3000
3000
3000
6000
6000
c000
8000
ENDCHAR
STARTCHAR *
ENCODING -1 42
SWIDTH 0 0
DWIDTH 13 0
BBX 10 11 1 5
BITMAP
0c00
0c00
4c80
edc0
7f80
1e00
7f80
edc0
4c80
0c00
0c00
ENDCHAR
STARTCHAR +
ENCODING -1 43
SWIDTH 0 0
DWIDTH 12 0
BBX 10 10 1 1
BITMAP
0c00
0c00
0c00
0c00
ffc0
ffc0
0c00
0c00
0c00
0c00
ENDCHAR
STARTCHAR ,
ENCODING -1 44
SWIDTH 0 0
DWIDTH 6 0
BBX 4 9 1 -6
BITMAP
6000
f000
f000
7000
3000
6000
6000
c000
8000
ENDCHAR
STARTCHAR -
ENCODING -1 45
SWIDTH 0 0
DWIDTH 9 0
BBX 7 2 1 5
BITMAP
fe00
fe00
ENDCHAR
STARTCHAR .
ENCODING -1 46
SWIDTH 0 0
DWIDTH 6 0
BBX 4 4 1 -1
BITMAP
6000
f000
f000
6000
ENDCHAR
STARTCHAR /
ENCODING -1 47
SWIDTH 0 0
DWIDTH 7 0
BBX 7 17 0 -1
BITMAP
0600
0600
0400
0c00
0c00
0800
1800
1800
1000
3000
3000
2000
6000
6000
4000
c000
c000
ENDCHAR
STARTCHAR 0
ENCODING -1 48
SWIDTH 0 0
DWIDTH 13 0
BBX 11 17 0 -1
BITMAP
0e00
3b80
3180
71c0
71c0
f1e0
f1e0
f1e0
f1e0
f1e0
f1e0
71c0
71c0
71c0
3180
3b80
0e00
ENDCHAR
STARTCHAR 1
ENCODING -1 49
SWIDTH 0 0
DWIDTH 11 0
BBX 9 17 1 -1
BITMAP
1c00
3c00
fc00
1c00
1c00
1c00
1c00
1c00
1c00
1c00
1c00
1c00
1c00
1c00
1c00
3e00
ff80
ENDCHAR
STARTCHAR 2
ENCODING -1 50
SWIDTH 0 0
DWIDTH 12 0
BBX 10 17 1 -1
BITMAP
1e00
3f00
7f80
c780
8380
0380
0380
0300
0700
0600
0c00
0c00
1800
3040
7fc0
ff80
ff80
ENDCHAR
STARTCHAR 3
ENCODING -1 51
SWIDTH 0 0
DWIDTH 12 0
BBX 11 17 0 -1
BITMAP
0f00
3f80
67c0
c3c0
03c0
0380
0780
1f00
07c0
01e0
01e0
00e0
00e0
60e0
f1c0
fb80
7e00
ENDCHAR
STARTCHAR 4
ENCODING -1 52
SWIDTH 0 0
DWIDTH 12 0
BBX 11 17 0 -1
BITMAP
0180
0380
0780
0780
0f80
1b80
3380
3380
6380
c380
ffe0
ffe0
ffe0
0380
0380
0380
0380
ENDCHAR
STARTCHAR 5
ENCODING -1 53
SWIDTH 0 0
DWIDTH 12 0
BBX 10 17 0 -1
BITMAP
1fc0
1fc0
3fc0
3000
2000
6000
7f00
7f80
7fc0
07c0
01c0
00c0
00c0
60c0
f180
fb80
7e00
ENDCHAR
STARTCHAR 6
ENCODING -1 54
SWIDTH 0 0
DWIDTH 13 0
BBX 11 17 1 -1
BITMAP
01e0
0780
1e00
3c00
3800
7800
7f00
fbc0
f1c0
f1e0
f1e0
f1e0
f1e0
71c0
71c0
3b80
0e00
ENDCHAR
STARTCHAR 7
ENCODING -1 55
SWIDTH 0 0
DWIDTH 12 0
BBX 11 17 0 -1
BITMAP
3fe0
7fe0
7fc0
c0c0
8180
0180
0380
0300
0300
0700
0600
0600
0e00
0e00
0c00
1c00
1c00
ENDCHAR
STARTCHAR 8
ENCODING -1 56
SWIDTH 0 0
DWIDTH 13 0
BBX 11 17 1 -1
BITMAP
1f00
3b80
71c0
71c0
71c0
7980
3f00
3f00
1f80
77c0
63c0
e1e0
e1e0
e1e0
f1c0
7b80
3f00
ENDCHAR
STARTCHAR 9
ENCODING -1 57
SWIDTH 0 0
DWIDTH 12 0
BBX 11 17 0 -1
BITMAP
0e00
3b80
71c0
71c0
f1e0
f1e0
f1e0
f1e0
71e0
3be0
1fc0
03c0
0380
0780
0f00
3c00
f000
ENDCHAR
STARTCHAR :
ENCODING -1 58
SWIDTH 0 0
DWIDTH 8 0
BBX 4 12 2 -1
BITMAP
6000
f000
f000
6000
0000
0000
0000
0000
6000
f000
f000
6000
ENDCHAR
STARTCHAR ;
ENCODING -1 59
SWIDTH 0 0
DWIDTH 8 0
BBX 4 17 2 -6
BITMAP
6000
f000
f000
6000
0000
0000
0000
0000
6000
f000
f000
7000
3000
6000
6000
c000
8000
ENDCHAR
STARTCHAR <
ENCODING -1 60
SWIDTH 0 0
DWIDTH 14 0
BBX 11 12 1 0
BITMAP
0060
01e0
0780
1e00
3800
e000
e000
3800
1e00
0780
01e0
0060
ENDCHAR
STARTCHAR =
ENCODING -1 61
SWIDTH 0 0
DWIDTH 12 0
BBX 9 6 1 3
BITMAP
ff80
ff80
0000
0000
ff80
ff80
ENDCHAR
STARTCHAR >
ENCODING -1 62
SWIDTH 0 0
DWIDTH 14 0
BBX 11 12 1 0
BITMAP
c000
f000
3c00
0f00
0380
00e0
00e0
0380
0f00
3c00
f000
c000
ENDCHAR
STARTCHAR ?
ENCODING -1 63
SWIDTH 0 0
DWIDTH 12 0
BBX 9 17 1 -1
BITMAP
3e00
6f00
e780
e780
4780
0780
0f00
0e00
1c00
1800
1800
0000
0000
1800
3c00
3c00
1800
ENDCHAR
STARTCHAR @
ENCODING -1 64
SWIDTH 0 0
DWIDTH 23 0
BBX 20 21 1 -5
BITMAP
007c0000
03f78000
0f80c000
1e006000
3c002000
383b3000
70ff1000
71e71000
f1c71000
e3c61000
e38e1000
e38e3000
e38e2000
f39e6000
f1fec000
70f38000
78000000
38000000
1e000000
07830000
01fc0000
ENDCHAR
STARTCHAR A
ENCODING -1 65
SWIDTH 0 0
DWIDTH 18 0
BBX 17 17 0 -1
BITMAP
01800000
01c00000
03c00000
03e00000
03e00000
06e00000
06f00000
04700000
0c700000
08780000
08380000
1ff80000
103c0000
303c0000
301e0000
701e0000
f87f8000
ENDCHAR
STARTCHAR B
ENCODING -1 66
SWIDTH 0 0
DWIDTH 16 0
BBX 14 17 0 -1
BITMAP
ffc0
3cf0
3c78
3c78
3c78
3c78
3c70
3cc0
3fe0
3c78
3c3c
3c3c
3c3c
3c3c
3c38
3c78
ffe0
ENDCHAR
STARTCHAR C
ENCODING -1 67
SWIDTH 0 0
DWIDTH 18 0
BBX 15 17 1 -1
BITMAP
07f2
1e1e
3c0e
7806
7806
f002
f000
f000
f000
f000
f000
f000
7800
7806
3c0e
1f1c
07f0
ENDCHAR
STARTCHAR D
ENCODING -1 68
SWIDTH 0 0
DWIDTH 18 0
BBX 16 17 1 -1
BITMAP
ffe0
3c78
3c3c
3c1e
3c1e
3c0f
3c0f
3c0f
3c0f
3c0f
3c0f
3c0e
3c1e
3c1c
3c3c
3c78
ffe0
ENDCHAR
STARTCHAR E
ENCODING -1 69
SWIDTH 0 0
DWIDTH 17 0
BBX 15 17 1 -1
BITMAP
fffc
3c1c
3c0c
3c04
3c04
3c20
3c20
3c60
3fe0
3c60
3c20
3c20
3c00
3c02
3c06
3c0e
fffe
ENDCHAR
STARTCHAR F
ENCODING -1 70
SWIDTH 0 0
DWIDTH 15 0
BBX 14 17 0 -1
BITMAP
fffc
3c1c
3c0c
3c04
3c04
3c20
3c20
3c60
3fe0
3c60
3c20
3c20
3c00
3c00
3c00
3c00
ff00
ENDCHAR
STARTCHAR G
ENCODING -1 71
SWIDTH 0 0
DWIDTH 19 0
BBX 17 17 1 -1
BITMAP
03f20000
1e3e0000
3c0e0000
78060000
78060000
f0020000
f0000000
f0000000
f0000000
f07f8000
f01e0000
f01e0000
781e0000
781e0000
381e0000
1e1e0000
07fc0000
ENDCHAR
STARTCHAR H
ENCODING -1 72
SWIDTH 0 0
DWIDTH 19 0
BBX 18 17 0 -1
BITMAP
ff3fc000
3c0f0000
3c0f0000
3c0f0000
3c0f0000
3c0f0000
3c0f0000
3c0f0000
3fff0000
3c0f0000
3c0f0000
3c0f0000
3c0f0000
3c0f0000
3c0f0000
3c0f0000
ff3fc000
ENDCHAR
STARTCHAR I
ENCODING -1 73
SWIDTH 0 0
DWIDTH 10 0
BBX 8 17 0 -1
BITMAP
ff00
3c00
3c00
3c00
3c00
3c00
3c00
3c00
3c00
3c00
3c00
3c00
3c00
3c00
3c00
3c00
ff00
ENDCHAR
STARTCHAR J
ENCODING -1 74
SWIDTH 0 0
DWIDTH 12 0
BBX 11 19 0 -3
BITMAP
1fe0
0780
0780
0780
0780
0780
0780
0780
0780
0780
0780
0780
0780
0780
e780
e780
e700
e700
3c00
ENDCHAR
STARTCHAR K
ENCODING -1 75
SWIDTH 0 0
DWIDTH 19 0
BBX 18 17 0 -1
BITMAP
ff3f8000
3c1c0000
3c180000
3c300000
3c600000
3cc00000
3d800000
3f800000
3fc00000
3fe00000
3df00000
3cf80000
3c7c0000
3c3e0000
3c1f0000
3c0f8000
ff1fc000
ENDCHAR
STARTCHAR L
ENCODING -1 76
SWIDTH 0 0
DWIDTH 15 0
BBX 15 17 0 -1
BITMAP
ff00
3c00
3c00
3c00
3c00
3c00
3c00
3c00
3c00
3c00
3c00
3c00
3c00
3c04
3c0c
3c1c
fffc
ENDCHAR
STARTCHAR M
ENCODING -1 77
SWIDTH 0 0
DWIDTH 24 0
BBX 21 17 1 -1
BITMAP
fc01f800
3c03e000
3e03e000
3e07e000
2f05e000
2f0de000
2709e000
2789e000
2799e000
2391e000
23f1e000
23f1e000
21e1e000
21e1e000
20c1e000
20c1e000
f807f800
ENDCHAR
STARTCHAR N
ENCODING -1 78
SWIDTH 0 0
DWIDTH 18 0
BBX 17 17 0 -1
BITMAP
f80f8000
7c020000
3e020000
3f020000
3f820000
2fc20000
27e20000
23f20000
21fa0000
20fe0000
207e0000
203e0000
201e0000
200e0000
20060000
20020000
f8020000
ENDCHAR
STARTCHAR O
ENCODING -1 79
SWIDTH 0 0
DWIDTH 19 0
BBX 16 17 1 -1
BITMAP
07e0
1e78
3c3c
781e
781e
f00f
f00f
f00f
f00f
f00f
f00f
f00f
781e
781e
3c3c
1e78
07e0
ENDCHAR
STARTCHAR P
ENCODING -1 80
SWIDTH 0 0
DWIDTH 15 0
BBX 14 17 0 -1
BITMAP
ffe0
3c78
3c3c
3c3c
3c3c
3c3c
3c3c
3c78
3fe0
3c00
3c00
3c00
3c00
3c00
3c00
3c00
ff00
ENDCHAR
STARTCHAR Q
ENCODING -1 81
SWIDTH 0 0
DWIDTH 19 0
BBX 17 22 1 -6
BITMAP
07e00000
1e780000
3c3c0000
781e0000
781e0000
f00f0000
f00f0000
f00f0000
f00f0000
f00f0000
f00f0000
f00f0000
781e0000
781e0000
3c3c0000
1ff80000
07e00000
03e00000
01e00000
01f00000
00fc0000
003f8000
ENDCHAR
STARTCHAR R
ENCODING -1 82
SWIDTH 0 0
DWIDTH 18 0
BBX 16 17 1 -1
BITMAP
ffe0
3c78
3c38
3c3c
3c3c
3c3c
3c38
3c70
3fc0
3de0
3cf0
3cf0
3c78
3c7c
3c3c
3c1e
ff1f
ENDCHAR
STARTCHAR S
ENCODING -1 83
SWIDTH 0 0
DWIDTH 14 0
BBX 12 17 1 -1
BITMAP
3fa0
71e0
e0e0
e060
e020
f800
7e00
7f80
3fc0
0fe0
07e0
81f0
80f0
c0f0
e0e0
f9e0
bf80
ENDCHAR
STARTCHAR T
ENCODING -1 84
SWIDTH 0 0
DWIDTH 16 0
BBX 14 17 1 -1
BITMAP
fffc
e79c
c78c
8784
8784
0780
0780
0780
0780
0780
0780
0780
0780
0780
0780
0780
1fe0
ENDCHAR
STARTCHAR U
ENCODING -1 85
SWIDTH 0 0
DWIDTH 18 0
BBX 17 17 0 -1
BITMAP
ff0f8000
3e060000
3c020000
3c020000
3c020000
3c020000
3c020000
3c020000
3c020000
3c020000
3c020000
3c020000
3c020000
3c060000
1e040000
1f1c0000
07f80000
ENDCHAR
STARTCHAR V
ENCODING -1 86
SWIDTH 0 0
DWIDTH 17 0
BBX 17 17 0 -1
BITMAP
ff1f8000
3c060000
3c040000
1e040000
1e0c0000
0f080000
0f180000
0f180000
07900000
07b00000
03e00000
03e00000
03e00000
01c00000
01c00000
00800000
00800000
ENDCHAR
STARTCHAR W
ENCODING -1 87
SWIDTH 0 0
DWIDTH 24 0
BBX 24 17 0 -1
BITMAP
ff7f9f00
3c1e0600
3c1e0400
1e0f0c00
1e1f0800
1e1f1800
0f179800
0f379000
0f27b000
07e3b000
07c3e000
07c3e000
03c1e000
0381c000
0381c000
01008000
01008000
ENDCHAR
STARTCHAR X
ENCODING -1 88
SWIDTH 0 0
DWIDTH 18 0
BBX 16 17 1 -1
BITMAP
ff3f
3e0c
1e08
1f18
0f30
0fa0
07e0
03c0
03e0
03e0
03f0
06f0
0c78
087c
183c
383e
fcff
ENDCHAR
STARTCHAR Y
ENCODING -1 89
SWIDTH 0 0
DWIDTH 17 0
BBX 18 17 0 -1
BITMAP
ff8fc000
3e030000
1e020000
0f060000
0f0c0000
078c0000
07980000
03d00000
03f00000
01e00000
01e00000
01e00000
01e00000
01e00000
01e00000
01e00000
07f80000
ENDCHAR
STARTCHAR Z
ENCODING -1 90
SWIDTH 0 0
DWIDTH 17 0
BBX 14 17 1 -1
BITMAP
fff8
e0f8
c1f0
c1f0
83e0
03c0
07c0
0780
0f80
0f00
1e00
3e04
3c04
7c0c
781c
f83c
fff8
ENDCHAR
STARTCHAR [
ENCODING -1 91
SWIDTH 0 0
DWIDTH 8 0
BBX 5 21 2 -5
BITMAP
f800
e000
c000
c000
c000
c000
c000
c000
c000
c000
c000
c000
c000
c000
c000
c000
c000
c000
c000
e000
f800
ENDCHAR
STARTCHAR \
ENCODING -1 92
SWIDTH 0 0
DWIDTH 7 0
BBX 7 17 0 -1
BITMAP
c000
c000
4000
6000
6000
2000
3000
3000
1000
1800
1800
0800
0c00
0c00
0400
0600
0600
ENDCHAR
STARTCHAR ]
ENCODING -1 93
SWIDTH 0 0
DWIDTH 8 0
BBX 5 21 1 -5
BITMAP
f800
3800
1800
1800
1800
1800
1800
1800
1800
1800
1800
1800
1800
1800
1800
1800
1800
1800
1800
3800
f800
ENDCHAR
STARTCHAR ^
ENCODING -1 94
SWIDTH 0 0
DWIDTH 15 0
BBX 8 10 3 6
BITMAP
1800
1800
3c00
2400
6600
6600
6600
c300
c300
8100
ENDCHAR
STARTCHAR _
ENCODING -1 95
SWIDTH 0 0
DWIDTH 12 0
BBX 12 6 0 -6
BITMAP
0000
0000
0000
0000
fff0
fff0
ENDCHAR
STARTCHAR `
ENCODING -1 96
SWIDTH 0 0
DWIDTH 8 0
BBX 4 9 2 7
BITMAP
1000
3000
6000
6000
c000
e000
f000
f000
6000
ENDCHAR
STARTCHAR a
ENCODING -1 97
SWIDTH 0 0
DWIDTH 12 0
BBX 10 12 1 -1
BITMAP
3e00
6700
e380
e380
4380
1f80
7380
e380
e380
e780
fdc0
7980
ENDCHAR
STARTCHAR b
ENCODING -1 98
SWIDTH 0 0
DWIDTH 13 0
BBX 11 17 1 -1
BITMAP
f000
7000
7000
7000
7000
7700
7fc0
79c0
70e0
70e0
70e0
70e0
70e0
70e0
71c0
7bc0
6f00
ENDCHAR
STARTCHAR c
ENCODING -1 99
SWIDTH 0 0
DWIDTH 11 0
BBX 9 12 1 -1
BITMAP
1f00
7380
7380
e380
e100
e000
e000
e000
f000
7980
7f00
1e00
ENDCHAR
STARTCHAR d
ENCODING -1 100
SWIDTH 0 0
DWIDTH 14 0
BBX 12 17 1 -1
BITMAP
01e0
00e0
00e0
00e0
00e0
0ee0
3fe0
39e0
70e0
70e0
70e0
70e0
70e0
70e0
38e0
3de0
0f70
ENDCHAR
STARTCHAR e
ENCODING -1 101
SWIDTH 0 0
DWIDTH 11 0
BBX 9 12 1 -1
BITMAP
1e00
7700
6380
e380
e380
ff80
e000
e000
f000
7980
7f00
1e00
ENDCHAR
STARTCHAR f
ENCODING -1 102
SWIDTH 0 0
DWIDTH 8 0
BBX 8 17 1 -1
BITMAP
1e00
3300
7300
7000
7000
fc00
7000
7000
7000
7000
7000
7000
7000
7000
7000
7000
f800
ENDCHAR
STARTCHAR g
ENCODING -1 103
SWIDTH 0 0
DWIDTH 12 0
BBX 10 17 1 -6
BITMAP
3e40
77c0
e380
e380
e380
e380
7700
3e00
7000
e000
ff80
7fc0
e1c0
e0c0
7180
3f00
0000
ENDCHAR
STARTCHAR h
ENCODING -1 104
SWIDTH 0 0
DWIDTH 14 0
BBX 12 17 1 -1
BITMAP
f000
7000
7000
7000
7000
7380
7fc0
79e0
70e0
70e0
70e0
70e0
70e0
70e0
70e0
70e0
f9f0
ENDCHAR
STARTCHAR i
ENCODING -1 105
SWIDTH 0 0
DWIDTH 7 0
BBX 5 17 1 -1
BITMAP
7000
7000
7000
0000
0000
f000
7000
7000
7000
7000
7000
7000
7000
7000
7000
7000
f800
ENDCHAR
STARTCHAR j
ENCODING -1 106
SWIDTH 0 0
DWIDTH 8 0
BBX 7 22 -1 -6
BITMAP
0e00
0e00
0e00
0000
0000
1e00
0e00
0e00
0e00
0e00
0e00
0e00
0e00
0e00
0e00
0e00
0e00
0e00
ce00
ce00
cc00
7800
ENDCHAR
STARTCHAR k
ENCODING -1 107
SWIDTH 0 0
DWIDTH 15 0
BBX 13 17 1 -1
BITMAP
f000
7000
7000
7000
7000
71f0
70c0
7180
7300
7600
7e00
7f00
7780
73c0
71e0
70f0
f9f8
ENDCHAR
STARTCHAR l
ENCODING -1 108
SWIDTH 0 0
DWIDTH 7 0
BBX 5 17 1 -1
BITMAP
f000
7000
7000
7000
7000
7000
7000
7000
7000
7000
7000
7000
7000
7000
7000
7000
f800
ENDCHAR
STARTCHAR m
ENCODING -1 109
SWIDTH 0 0
DWIDTH 21 0
BBX 19 12 1 -1
BITMAP
f3870000
77df8000
79f3c000
70e1c000
70e1c000
70e1c000
70e1c000
70e1c000
70e1c000
70e1c000
70e1c000
f9f3e000
ENDCHAR
STARTCHAR n
ENCODING -1 110
SWIDTH 0 0
DWIDTH 14 0
BBX 12 12 1 -1
BITMAP
f380
77c0
79e0
70e0
70e0
70e0
70e0
70e0
70e0
70e0
70e0
f9f0
ENDCHAR
STARTCHAR o
ENCODING -1 111
SWIDTH 0 0
DWIDTH 13 0
BBX 11 12 1 -1
BITMAP
1f00
7bc0
71c0
e0e0
e0e0
e0e0
e0e0
e0e0
e0e0
71c0
7bc0
1f00
ENDCHAR
STARTCHAR p
ENCODING -1 112
SWIDTH 0 0
DWIDTH 14 0
BBX 12 17 1 -6
BITMAP
e780
7fe0
78e0
7070
7070
7070
7070
7070
7070
78e0
77e0
7380
7000
7000
7000
7000
f800
ENDCHAR
STARTCHAR q
ENCODING -1 113
SWIDTH 0 0
DWIDTH 14 0
BBX 12 17 1 -6
BITMAP
0e60
3fe0
71e0
60e0
e0e0
e0e0
e0e0
e0e0
e0e0
71e0
7ee0
1ce0
00e0
00e0
00e0
00e0
01f0
ENDCHAR
STARTCHAR r
ENCODING -1 114
SWIDTH 0 0
DWIDTH 11 0
BBX 9 12 1 -1
BITMAP
ef00
7b80
7380
7100
7000
7000
7000
7000
7000
7000
7000
f800
ENDCHAR
STARTCHAR s
ENCODING -1 115
SWIDTH 0 0
DWIDTH 10 0
BBX 8 12 1 -1
BITMAP
3e00
6600
e200
e000
f000
7c00
3e00
0f00
0700
8700
c600
fc00
ENDCHAR
STARTCHAR t
ENCODING -1 116
SWIDTH 0 0
DWIDTH 8 0
BBX 8 16 0 -1
BITMAP
0800
1800
3800
7800
ff00
3800
3800
3800
3800
3800
3800
3800
3800
3900
3e00
1c00
ENDCHAR
STARTCHAR u
ENCODING -1 117
SWIDTH 0 0
DWIDTH 14 0
BBX 12 12 1 -1
BITMAP
f1e0
70e0
70e0
70e0
70e0
70e0
70e0
70e0
70e0
79e0
3ef0
1ce0
ENDCHAR
STARTCHAR v
ENCODING -1 118
SWIDTH 0 0
DWIDTH 12 0
BBX 12 12 0 -1
BITMAP
fcf0
7860
7840
38c0
3c80
1c80
1d80
1d00
0f00
0f00
0600
0600
ENDCHAR
STARTCHAR w
ENCODING -1 119
SWIDTH 0 0
DWIDTH 18 0
BBX 17 12 0 -1
BITMAP
fcf78000
78e30000
38e30000
38e20000
3df60000
1df60000
1d740000
1f7c0000
0f3c0000
0e380000
06180000
06180000
ENDCHAR
STARTCHAR x
ENCODING -1 120
SWIDTH 0 0
DWIDTH 12 0
BBX 12 12 0 -1
BITMAP
fcf0
7860
38c0
1d80
1f00
0f00
0f00
1f80
1bc0
31c0
61e0
f3f0
ENDCHAR
STARTCHAR y
ENCODING -1 121
SWIDTH 0 0
DWIDTH 12 0
BBX 12 17 0 -6
BITMAP
fdf0
7860
3840
38c0
3c80
1c80
1d80
1f00
0f00
0f00
0600
0600
0600
6400
ec00
f800
7000
ENDCHAR
STARTCHAR z
ENCODING -1 122
SWIDTH 0 0
DWIDTH 11 0
BBX 9 12 1 -1
BITMAP
ff80
c700
8f00
8e00
1e00
1c00
3c00
3800
7880
7080
f180
ff80
ENDCHAR
STARTCHAR {
ENCODING -1 123
SWIDTH 0 0
DWIDTH 10 0
BBX 7 21 1 -5
BITMAP
0e00
1800
3000
3000
3000
3000
3000
3000
3000
6000
c000
6000
3000
3000
3000
3000
3000
3000
3000
1800
0e00
ENDCHAR
STARTCHAR |
ENCODING -1 124
SWIDTH 0 0
DWIDTH 6 0
BBX 2 22 2 -6
BITMAP
c000
c000
c000
c000
c000
c000
c000
c000
c000
c000
c000
c000
c000
c000
c000
c000
c000
c000
c000
c000
c000
c000
ENDCHAR
STARTCHAR }
ENCODING -1 125
SWIDTH 0 0
DWIDTH 10 0
BBX 7 21 1 -5
BITMAP
e000
3000
1800
1800
1800
1800
1800
1800
1800
0c00
0600
0c00
1800
1800
1800
1800
1800
1800
1800
3000
e000
ENDCHAR
STARTCHAR ~
ENCODING -1 126
SWIDTH 0 0
DWIDTH 13 0
BBX 12 6 0 5
BITMAP
1800
7e10
ff10
8ff0
87e0
0180
ENDCHAR
ENDFONT
